<svg xmlns="http://www.w3.org/2000/svg" id="uuid-98aedc92-bc55-4420-9816-fced1e517869" viewBox="0 0 1312 512.2"><defs><style>.uuid-6c28710c-da94-403f-bc68-458b5f3ae890{fill:#042a3f;}.uuid-84c8d4f2-d0df-4127-a618-4f51cd034759{fill:#ff0;}.uuid-572ed304-f6cc-4ac0-91a0-be3020bc412b{fill:#46d39d;}</style></defs><g id="uuid-69e97c2c-b1fd-4260-a763-1ebf498728de"><g><g><path class="uuid-6c28710c-da94-403f-bc68-458b5f3ae890" d="M698.6,88.6l-42.3,133.4-1.8-128-93.2,11.4-43.3,135.4-.4-130-62.3,7.6C410.1,53.9,335.1,11.6,250.2,11.6,112,11.6,0,123.7,0,261.9s112,250.3,250.3,250.3c101.5,0,188.9-60.5,228.2-147.3l64.1-7.9,44.8-132.3,4.7,126.2,95.7-11.8,105.4-262.1-94.6,11.6Z"></path><polygon class="uuid-6c28710c-da94-403f-bc68-458b5f3ae890" points="817.7 74 778.4 328 870.5 316.7 909.8 62.7 817.7 74"></polygon><path class="uuid-6c28710c-da94-403f-bc68-458b5f3ae890" d="M1094.1,40l-13.4,86.1c-1.8,11.4-4,39.1-4,39.1l-32.9-119.1-96.1,11.8-39.4,254,89.6-11,13.4-86.1c2.2-14,4.3-39.9,4.3-39.9l31.8,120,96.8-11.9,39.4-254-89.5,11Z"></path><polygon class="uuid-6c28710c-da94-403f-bc68-458b5f3ae890" points="1312 11 1217.5 22.6 1199.6 183.4 1279.6 173.6 1312 11"></polygon><path class="uuid-6c28710c-da94-403f-bc68-458b5f3ae890" d="M1238.2,188.1c-33.1,4.1-56.4,25.5-56.4,57.8,0,23.3,16.4,34,42.6,30.8,31.6-3.9,56-24.7,56-57.1,0-23.6-16.8-34.6-42.2-31.5Z"></path></g><g><path class="uuid-84c8d4f2-d0df-4127-a618-4f51cd034759" d="M569.5,213.6l-44.8,132.3-95.3,11.7-24.6-246.2,95-11.7,.4,130,43.3-135.3,93.2-11.4,1.8,128,42.3-133.4,94.6-11.6-105.5,262-95.7,11.8-4.7-126.2Z"></path><path class="uuid-84c8d4f2-d0df-4127-a618-4f51cd034759" d="M799.9,62.9l92.1-11.3-39.4,254-92.1,11.3,39.4-254Z"></path><path class="uuid-84c8d4f2-d0df-4127-a618-4f51cd034759" d="M997.9,163.9s-2.2,25.9-4.3,39.9l-13.4,86.1-89.6,11,39.4-254,96.1-11.8,32.9,119.1s2.2-27.7,4-39.1l13.4-86.1,89.6-11-39.4,254-96.8,11.9-31.9-120Z"></path><path class="uuid-84c8d4f2-d0df-4127-a618-4f51cd034759" d="M1206.5,265.7c-26.2,3.2-42.6-7.5-42.6-30.8,0-32.4,23.3-53.8,56.4-57.8,25.5-3.1,42.2,7.9,42.2,31.6,0,32.3-24.3,53.1-56,57Zm-6.9-254.1L1294.2,0l-32.4,162.5-80,9.8,17.8-160.7Z"></path></g><g><path class="uuid-572ed304-f6cc-4ac0-91a0-be3020bc412b" d="M151.4,295.4l7.6-47.6,81.6-10-13.3,85c-22.4,21.8-46.4,37-86.3,41.9-40.2,4.9-79-11.7-79-66.7,0-77.2,59.2-116.3,111.1-122.7,44.3-5.4,65.5,13.1,69.4,18.3l-42.5,45.4c-5-5.1-16.4-10-31-8.2-19.6,2.4-38.9,20.2-38.9,50.4,0,19.3,9.7,29.1,27.6,26.9,7.8-1,17.7-4.3,25-10.1l1-6.6-32.3,4Z"></path><path class="uuid-572ed304-f6cc-4ac0-91a0-be3020bc412b" d="M329.9,341.8c-48.8,6-81.1-18.5-81.1-67.5,0-67.3,48.8-114.5,110.3-122.1,48.8-6,81.4,18.7,81.4,68,0,67.3-49.1,114-110.6,121.6Zm43.5-106.8c0-15.9-7.6-26.7-23.2-24.8-21.4,2.6-34.4,23.3-34.4,46,0,16.2,7.8,26.9,23.5,25,21.6-2.7,34.1-23.5,34.1-46.2Z"></path></g></g></g></svg>